<svg xmlns="http://www.w3.org/2000/svg" width="34.25" height="21.406" viewBox="0 0 34.25 21.406">
  <g id="menu" transform="translate(0 -96)">
    <g id="Group_2" data-name="Group 2" transform="translate(0 96)">
      <g id="Group_1" data-name="Group 1">
        <path id="Path_1" data-name="Path 1" d="M33.536,96H.714a.714.714,0,1,0,0,1.427H33.536a.714.714,0,1,0,0-1.427Z" transform="translate(0 -96)" fill="#fff"/>
      </g>
    </g>
    <g id="Group_4" data-name="Group 4" transform="translate(0 105.99)">
      <g id="Group_3" data-name="Group 3">
        <path id="Path_2" data-name="Path 2" d="M33.536,245.333H.714a.714.714,0,0,0,0,1.427H33.536a.714.714,0,1,0,0-1.427Z" transform="translate(0 -245.333)" fill="#fff"/>
      </g>
    </g>
    <g id="Group_6" data-name="Group 6" transform="translate(0 115.979)">
      <g id="Group_5" data-name="Group 5">
        <path id="Path_3" data-name="Path 3" d="M26.569,394.667h-26a.733.733,0,0,0,0,1.427h26a.733.733,0,0,0,0-1.427Z" transform="translate(0 -394.667)" fill="#fff"/>
      </g>
    </g>
  </g>
</svg>
