<svg xmlns="http://www.w3.org/2000/svg" width="21.639" height="21.64" viewBox="0 0 21.639 21.64">
  <g id="search" transform="translate(-0.008)">
    <g id="Group_8" data-name="Group 8" transform="translate(0.008)">
      <g id="Group_7" data-name="Group 7">
        <path id="Path_4" data-name="Path 4" d="M7.672,0a7.664,7.664,0,1,0,7.664,7.664A7.673,7.673,0,0,0,7.672,0Zm0,14.427a6.762,6.762,0,1,1,6.762-6.762A6.77,6.77,0,0,1,7.672,14.427Z" transform="translate(-0.008)" fill="#fff"/>
      </g>
    </g>
    <g id="Group_10" data-name="Group 10" transform="translate(12.322 12.315)">
      <g id="Group_9" data-name="Group 9">
        <path id="Path_5" data-name="Path 5" d="M300.546,299.921l-8.424-8.424a.451.451,0,1,0-.637.638l8.424,8.424a.451.451,0,0,0,.638-.637Z" transform="translate(-291.352 -291.365)" fill="#fff"/>
      </g>
    </g>
  </g>
</svg>
